HIERARCHY
ROOT Hips
{
  OFFSET 263.056 91.6644 -274.608
  CHANNELS 6 Xposition Yposition Zposition Zrotation Xrotation Yrotation
  JOINT LeftUpLeg
  {
    OFFSET 8.64259 1.95398 -2.38835
    CHANNELS 3 Zrotation Xrotation Yrotation
    JOINT LeftLeg
    {
      OFFSET 43.7702 0 0
      CHANNELS 3 Zrotation Xrotation Yrotation
      JOINT LeftFoot
      {
        OFFSET 40.6238 0 0
        CHANNELS 3 Zrotation Xrotation Yrotation
        JOINT LeftToeBase
        {
          OFFSET 12.7242 0 0
          CHANNELS 3 Zrotation Xrotation Yrotation
          End Site
          {
            OFFSET 0 0 0
          }
        }
      }
    }
  }
  JOINT RightUpLeg
  {
    OFFSET -8.2249 1.95398 -2.59336
    CHANNELS 3 Zrotation Xrotation Yrotation
    JOINT RightLeg
    {
      OFFSET 43.5653 0 0
      CHANNELS 3 Zrotation Xrotation Yrotation
      JOINT RightFoot
      {
        OFFSET 40.6238 0 0
        CHANNELS 3 Zrotation Xrotation Yrotation
        JOINT RightToeBase
        {
          OFFSET 12.7242 0 0
          CHANNELS 3 Zrotation Xrotation Yrotation
          End Site
          {
            OFFSET 0 0 0
          }
        }
      }
    }
  }
  JOINT Spine
  {
    OFFSET 0.165834 0.87714 6.61349
    CHANNELS 3 Zrotation Xrotation Yrotation
    JOINT Spine1
    {
      OFFSET 7.38963 1.71661e-005 0
      CHANNELS 3 Zrotation Xrotation Yrotation
      JOINT Spine2
      {
        OFFSET 11.9445 1.14441e-005 0
        CHANNELS 3 Zrotation Xrotation Yrotation
        JOINT Spine3
        {
          OFFSET 14.7254 4.19617e-005 0
          CHANNELS 3 Zrotation Xrotation Yrotation
          JOINT Spine4
          {
            OFFSET 10.9679 0 0
            CHANNELS 3 Zrotation Xrotation Yrotation
            JOINT RightShoulder
            {
              OFFSET 2.46616 -1.6653 3.69651
              CHANNELS 3 Zrotation Xrotation Yrotation
              JOINT RightArm
              {
                OFFSET 13.0012 0 0
                CHANNELS 3 Zrotation Xrotation Yrotation
                JOINT RightForeArm
                {
                  OFFSET 28.7848 1.52588e-005 0
                  CHANNELS 3 Zrotation Xrotation Yrotation
                  JOINT RightHand
                  {
                    OFFSET 26.5688 1.52588e-005 0
                    CHANNELS 3 Zrotation Xrotation Yrotation
                    End Site
                    {
                      OFFSET 0 0 0
                    }
                  }
                }
              }
            }
            JOINT LeftShoulder
            {
              OFFSET 2.38034 -1.29275 -3.7523
              CHANNELS 3 Zrotation Xrotation Yrotation
              JOINT LeftArm
              {
                OFFSET 16.3182 6.10352e-005 0
                CHANNELS 3 Zrotation Xrotation Yrotation
                JOINT LeftForeArm
                {
                  OFFSET 27.0901 0 0
                  CHANNELS 3 Zrotation Xrotation Yrotation
                  JOINT LeftHand
                  {
                    OFFSET 24.5451 1.52588e-005 0
                    CHANNELS 3 Zrotation Xrotation Yrotation
                    End Site
                    {
                      OFFSET 0 0 0
                    }
                  }
                }
              }
            }
            JOINT Neck
            {
              OFFSET 5.0226 -0.0266342 0
              CHANNELS 3 Zrotation Xrotation Yrotation
              JOINT Head
              {
                OFFSET 6.69364 2.86102e-005 0
                CHANNELS 3 Zrotation Xrotation Yrotation
                End Site
                {
                  OFFSET 0 0 0
                }
              }
            }
          }
        }
      }
    }
  }
}
MOTION
Frames:	9
Frame Time:	0.0416667
19.6565 95.1626 -297.621 94.5669 -42.0163 88.4367 -168.47 10.7947 91.2571 -29.2185 62.974 -16.8854 40.6881 -15.8911 41.1167 36.9052 11.0578 29.6887 177.235 12.7674 93.2223 -32.7255 11.5816 1.49718 74.7868 -3.70782 -1.82755 26.4634 -1.04178 10.729 -0.898791 7.82753 -89.9173 11.2225 -1.7503 0.337001 -0.447353 -1.73376 0.41372 -22.9919 -1.77062 -0.204786 -2.97928 -1.77065 -0.204794 76.7539 -55.208 -118.435 21.6646 -10.8664 12.5838 -3.23626 -17.0847 -54.564 -14.2189 -3.45589 24.3297 -86.5196 -39.5123 82.1119 -29.1778 12.8748 0.508678 8.99291 16.56 -36.9049 11.1865 -1.05579 -12.4763 6.13461 -16.7753 -11.0863 -0.247936 -14.24 5.11849 
20.8129 95.4271 -297.496 94.9444 -47.0053 88.571 -171.847 11.787 91.5769 -34.9109 42.0749 -5.00983 43.4456 -9.11394 31.3024 42.1988 20.0494 25.9106 179.248 11.7498 93.7828 -31.5726 9.10224 -1.50482 74.1303 -3.47713 -1.7217 27.6582 -0.799092 9.9877 -0.270165 7.64652 -90.1131 11.5806 -0.590367 -0.16463 -0.0901515 -0.59704 -0.138491 -22.6263 -0.513591 -0.33445 -2.61367 -0.513597 -0.334464 84.11 -50.1675 -109.719 28.3776 -6.14221 12.0954 -10.57 -12.3278 -48.4816 -7.59957 -0.768411 7.4212 -98.7909 -40.523 62.0663 -33.0443 3.88877 11.4699 10.8305 10.6306 -41.6102 6.49196 0.548032 3.14975 2.13227 -16.8017 -2.36176 1.56533 -16.3066 -2.58813 
23.5361 95.9271 -298.073 93.8306 -54.8245 88.2661 -175.633 11.3789 91.6004 -28.4158 31.2585 -0.103668 48.199 -1.91281 27.384 46.1123 24.3532 19.3622 -179.838 11.0629 92.9959 -29.9714 2.71631 -3.31905 73.5968 -3.83521 -1.89057 28.2513 -0.692411 9.74047 -0.172561 7.6103 -90.1533 11.6527 -0.415064 -0.262209 -0.0181548 -0.426206 -0.243697 -22.5535 -0.317089 -0.374832 -2.54081 -0.317076 -0.374832 83.6679 -49.5362 -110.587 28.6174 -6.94044 10.5737 -12.8252 -11.1669 -52.3409 -5.35552 -0.508966 4.12895 -99.7478 -41.1681 60.8549 -34.9639 5.36672 11.5937 8.09731 10.5162 -35.9065 3.28648 0.154825 0.680733 3.6434 -14.1397 -0.186546 1.7384 -13.9636 -2.16629 
26.2037 96.3133 -298.617 92.0598 -62.4322 87.8521 -178.52 10.6613 91.8161 -21.9959 29.7782 2.93384 54.1388 3.75483 19.3448 54.7826 31.8778 8.64806 -179.103 11.1402 92.5392 -28.9634 -2.67701 -4.53781 72.4917 -3.76325 -1.86719 28.9763 -0.641514 10.651 -0.13479 7.60037 -90.188 11.6724 -0.35625 -0.337332 0.00142493 -0.370748 -0.321341 -22.5336 -0.238398 -0.428808 -2.52093 -0.238406 -0.428808 83.0013 -49.9047 -111.461 27.8177 -9.27847 8.16397 -12.6672 -10.7928 -56.0186 -7.05158 -0.617238 3.96713 -99.8234 -41.2552 60.7747 -36.4222 5.99914 10.7964 5.85697 9.97741 -30.8483 2.46116 0.115291 0.488029 5.22914 -11.1326 0.544623 2.22519 -11.079 -1.25336 
28.8921 96.2913 -299.317 92.297 -69.2938 90.0584 -178.417 8.83277 93.0396 -17.9032 34.5122 3.78446 55.9082 4.33968 15.922 54.2394 28.7006 2.3574 -177.818 10.844 93.1199 -28.7745 -7.73581 -6.11181 71.5619 -3.68436 -1.83878 30.9334 -0.307737 9.98386 -0.110766 7.67156 -90.3199 11.5294 -0.369984 -0.599479 -0.141617 -0.396003 -0.582621 -22.6758 -0.172722 -0.682952 -2.66313 -0.172713 -0.682959 83.323 -49.2436 -111.21 29.1765 -9.06182 7.60812 -14.1932 -9.47808 -58.4878 -7.22491 -0.592822 3.29173 -100.341 -41.3859 60.0174 -36.9808 6.54968 10.1494 7.2334 14.9297 -29.7337 2.15641 0.150149 1.71094 5.44696 -8.1589 1.14012 3.33069 -8.27934 -1.24746 
31.7096 96.4223 -300.291 93.0226 -74.9907 91.6268 -177.134 8.53756 92.3912 -18.8855 24.1783 3.63278 60.0325 5.79983 9.7679 45.7986 16.8211 -10.1226 -176.747 10.5959 92.5722 -28.2545 -12.467 -7.91656 70.7395 -3.80232 -1.92818 32.1743 -0.0929443 9.24786 -0.218641 7.71641 -90.3085 11.4394 -0.579126 -0.555839 -0.231535 -0.603021 -0.529815 -22.7663 -0.385298 -0.704182 -2.75363 -0.385311 -0.704199 82.4691 -50.2359 -112.138 28.4154 -8.14021 7.93203 -15.6257 -10.0472 -59.1751 -7.46896 -0.622231 3.43572 -100.304 -41.4885 60.1201 -36.6824 7.06272 9.58102 6.43002 14.1609 -29.6186 4.59407 0.479345 5.27749 6.14434 -5.5782 1.13099 3.64124 -5.71752 -0.64707 
34.162 96.5354 -301.348 88.5937 -80.5723 88.0369 -176.11 9.93021 91.4537 -20.4093 18.365 2.90319 61.5974 6.21805 9.42724 42.1053 12.9944 -14.0074 -174.789 12.4669 92.4715 -28.8919 -14.9469 -9.85678 68.9514 -3.54672 -1.87257 34.1439 0.225925 7.67217 -0.242925 7.70158 -90.2653 11.4692 -0.607219 -0.466721 -0.201642 -0.627179 -0.439552 -22.7368 -0.438886 -0.627637 -2.72414 -0.438889 -0.627641 80.778 -51.6965 -114.095 26.6698 -5.9223 9.2038 -17.2827 -9.36003 -60.6815 -4.7718 -0.47924 4.43425 -99.8058 -41.1802 60.7691 -35.4091 7.73121 7.96553 5.58214 12.2876 -29.8954 8.2732 0.545971 2.39106 7.22297 -3.36861 1.18056 4.293 -3.56988 -0.599245 
36.018 96.524 -302.152 84.3298 -84.6561 84.509 -175.231 10.2292 91.3781 -20.7535 20.7077 1.77462 60.1641 6.3988 14.3208 45.0288 15.6007 -13.2946 -174.653 14.1703 92.5791 -29.8352 -9.599 -8.96288 69.2507 -3.8357 -2.02815 32.1883 0.0732456 3.94608 -0.25929 7.72168 -90.1955 11.4295 -0.607179 -0.327795 -0.241358 -0.621024 -0.300758 -22.7769 -0.480595 -0.495121 -2.76429 -0.480595 -0.495128 79.659 -52.4574 -115.425 25.6897 -5.53856 9.62176 -18.8474 -11.9104 -58.325 -7.0266 -0.769918 6.65807 -99.8426 -40.5987 60.4563 -32.6146 7.37689 7.48054 6.12018 10.8757 -32.6792 9.05918 0.575585 2.29956 7.99121 -1.85851 1.2822 4.77801 -2.15891 -1.09297 
37.4874 96.7668 -302.729 85.2678 -87.5121 85.2032 -175.288 9.24335 90.4917 -19.7411 28.2128 0.695254 54.5888 4.24458 24.1318 47.1132 17.3886 -13.3741 -177.832 15.0849 91.8349 -32.168 -0.317585 -5.63748 70.1346 -3.93032 -2.05103 35.8114 0.425145 6.73769 -0.29075 7.71599 -90.0223 11.4421 -0.588853 0.0153436 -0.228733 -0.587596 0.0412387 -22.7649 -0.566245 -0.162343 -2.75225 -0.566239 -0.162345 79.3216 -52.9135 -115.733 25.274 -6.19946 9.17822 -13.0441 -11.3895 -52.2149 -9.86841 -0.966568 6.19684 -99.785 -40.7132 60.5984 -28.7076 7.04098 6.74462 6.31702 9.76776 -34.8866 12.7228 0.956761 3.52196 7.68565 -0.652332 1.2587 5.45722 -0.983612 -1.14569 
